<svg xmlns="http://www.w3.org/2000/svg" xmlns:xlink="http://www.w3.org/1999/xlink" viewBox="0 0 117.73 89.59"><defs><style>.cls-1{fill:#0f0f0f;}.cls-2{fill:url(#linear-gradient);}</style><linearGradient id="linear-gradient" x1="27.03" y1="49.49" x2="117.73" y2="49.49" gradientUnits="userSpaceOnUse"><stop offset="0.12" stop-color="#ff6e1f"/><stop offset="0.79" stop-color="#f9ca06"/></linearGradient></defs><g id="Layer_2" data-name="Layer 2"><g id="Layer_1-2" data-name="Layer 1"><path class="cls-1" d="M69.19,61a6.79,6.79,0,0,0-7.11,3,26.34,26.34,0,1,1,.06-28.94,6.72,6.72,0,0,0,7,2.91l.41-.09a6.72,6.72,0,0,0,4.2-10.14,40.1,40.1,0,1,0-.09,43.63A6.75,6.75,0,0,0,69.58,61.1Z"/><path class="cls-1" d="M6.88,0h0a6.88,6.88,0,0,1,6.88,6.88V49.49a0,0,0,0,1,0,0H0a0,0,0,0,1,0,0V6.88A6.88,6.88,0,0,1,6.88,0Z"/><path class="cls-2" d="M117.73,49.48A17.86,17.86,0,0,0,86.08,38.13l-.35.43a24.82,24.82,0,0,1-36.67,1.81l-.05,0a12.91,12.91,0,1,0,0,18.34l.05,0a24.84,24.84,0,0,1,36.75,1.89,17.86,17.86,0,0,0,31.92-11Z"/></g></g></svg>