<svg width="100" height="100" viewBox="0 0 100 100" fill="none" xmlns="http://www.w3.org/2000/svg">
<path d="M66.4563 88.5285H71.4876C73.0413 88.5285 74.0401 87.6262 74.4101 86.198L75.8897 79.9962C76.9255 79.6203 77.9243 79.2447 78.8123 78.7183L84.1763 82.1012C85.397 82.853 86.8397 82.7401 87.8757 81.6877L91.4271 78.0419C92.4259 76.9892 92.6109 75.4859 91.834 74.2078L88.5415 68.8707C88.9853 67.9309 89.4295 66.9536 89.7253 65.9388L95.8293 64.4355C97.3092 64.0971 98.1599 63.0448 98.1599 61.5036V56.4295C98.1599 54.926 97.3092 53.836 95.8293 53.4977L89.7995 51.9567C89.4295 50.8291 88.9853 49.8518 88.6157 49.0249L91.834 43.5749C92.574 42.2594 92.574 40.8686 91.501 39.8162L87.8757 36.2079C86.8397 35.2306 85.4712 34.9676 84.2502 35.7193L78.8123 39.1397C77.9615 38.651 76.9624 38.2376 75.8897 37.8993L74.4101 31.5848C74.0401 30.1565 73.0413 29.2544 71.4876 29.2544H66.4563C64.9026 29.2544 63.8668 30.1565 63.5339 31.5848L62.0541 37.8241C61.0183 38.2 59.9825 38.5759 59.0946 39.1021L53.6935 35.7193C52.4728 34.9676 51.104 35.1931 50.0682 36.2079L46.4428 39.8162C45.37 40.8686 45.37 42.2594 46.1099 43.5749L49.3283 49.0249C48.9584 49.8518 48.5144 50.8291 48.1445 51.9567L42.0775 53.4977C40.6348 53.836 39.7839 54.926 39.7839 56.4295V61.5036C39.7839 63.0448 40.6348 64.0971 42.0775 64.4355L48.2185 65.9388C48.5144 66.9536 48.9584 67.9309 49.4023 68.8707L46.1099 74.2078C45.333 75.4859 45.518 76.9892 46.5168 78.0419L50.0682 81.6877C51.104 82.7401 52.5467 82.853 53.7675 82.1012L59.1316 78.7183C60.0195 79.2447 61.0183 79.6203 62.0541 79.9962L63.5339 86.198C63.8668 87.6262 64.9026 88.5285 66.4563 88.5285ZM68.9719 68.3444C63.8668 68.3444 59.6495 64.0596 59.6495 58.835C59.6495 53.6857 63.8668 49.4384 68.9719 49.4384C74.0771 49.4384 78.2942 53.6857 78.2942 58.835C78.2942 64.0596 74.0771 68.3444 68.9719 68.3444Z" fill="white"/>
<path d="M21.8439 55.9277H25.6173C26.7826 55.9277 27.5317 55.251 27.8092 54.1799L28.9189 49.5285C29.6957 49.2466 30.4448 48.9649 31.1108 48.5701L35.1338 51.1073C36.0494 51.6711 37.1314 51.5864 37.9084 50.7972L40.5719 48.0628C41.321 47.2733 41.4598 46.1458 40.8771 45.1872L38.4077 41.1844C38.7406 40.4796 39.0737 39.7466 39.2956 38.9855L43.8736 37.858C44.9835 37.6042 45.6215 36.815 45.6215 35.6591V31.8535C45.6215 30.7259 44.9835 29.9084 43.8736 29.6547L39.3512 28.4989C39.0737 27.6532 38.7406 26.9202 38.4634 26.3001L40.8771 22.2125C41.4321 21.2259 41.4321 20.1828 40.6273 19.3935L37.9084 16.6873C37.1314 15.9544 36.105 15.757 35.1892 16.3208L31.1108 18.8861C30.4727 18.5197 29.7234 18.2096 28.9189 17.9558L27.8092 13.2199C27.5317 12.1487 26.7826 11.4722 25.6173 11.4722H21.8439C20.6786 11.4722 19.9017 12.1487 19.652 13.2199L18.5422 17.8995C17.7653 18.1814 16.9885 18.4633 16.3226 18.8579L12.2718 16.3208C11.3562 15.757 10.3296 15.9262 9.55273 16.6873L6.83371 19.3935C6.02908 20.1828 6.02908 21.2259 6.584 22.2125L8.99783 26.3001C8.72038 26.9202 8.38742 27.6532 8.10999 28.4989L3.55976 29.6547C2.4777 29.9084 1.83956 30.7259 1.83956 31.8535V35.6591C1.83956 36.815 2.4777 37.6042 3.55976 37.858L8.16548 38.9855C8.38742 39.7466 8.72038 40.4796 9.05333 41.1844L6.584 45.1872C6.00134 46.1458 6.14008 47.2733 6.88919 48.0628L9.55273 50.7972C10.3296 51.5864 11.4117 51.6711 12.3273 51.1073L16.3503 48.5701C17.0162 48.9649 17.7653 49.2466 18.5422 49.5285L19.652 54.1799C19.9017 55.251 20.6786 55.9277 21.8439 55.9277ZM23.7305 40.7896C19.9017 40.7896 16.7387 37.5761 16.7387 33.6577C16.7387 29.7956 19.9017 26.6102 23.7305 26.6102C27.5594 26.6102 30.7223 29.7956 30.7223 33.6577C30.7223 37.5761 27.5594 40.7896 23.7305 40.7896Z" fill="white"/>
</svg>
