<svg width="101" height="100" viewBox="0 0 101 100" fill="none" xmlns="http://www.w3.org/2000/svg">
<path d="M89.1622 88.5285H62.0721C59.7757 88.5285 57.5571 87.3639 57.5571 85.4305C57.5571 79.421 64.4893 71.1286 75.628 71.1286C86.7451 71.1286 93.6772 79.421 93.6772 85.4305C93.6772 87.3639 91.4586 88.5285 89.1622 88.5285Z" fill="white"/>
<path d="M76.8212 68.643C71.6681 68.643 67.1891 64.2644 67.1891 58.5633C67.1891 52.9307 71.6681 48.7575 76.8212 48.7575C81.9743 48.7575 86.4532 53.0219 86.4532 58.6089C86.4532 64.2644 81.9984 68.643 76.8212 68.643Z" fill="white"/>
<path d="M53.1424 21.0006H39.2964V35.2933H53.1424V21.0006ZM16.2196 21.0006V35.2933H30.0657V21.0006H16.2196ZM30.0657 47.2039H25.4503V42.4397H30.0657V37.6754H25.4503V42.4397H20.835V37.6754H16.2196V42.4397H20.835V47.2039H16.2196V54.3503H20.835V59.1145H25.4503V54.3503H32.3734V59.1145H36.9887V49.586H30.0657V47.2039ZM25.4503 47.2039V54.3503H20.835V47.2039H25.4503ZM53.1424 59.1145V44.8218H39.2964V59.1145H53.1424ZM48.5271 25.7649V30.5291H43.9117V25.7649H48.5271ZM25.4503 25.7649V30.5291H20.835V25.7649H25.4503ZM48.5271 49.586V54.3503H43.9117V49.586H48.5271ZM53.1424 37.6754H48.5271V42.4397H53.1424V37.6754ZM41.6041 37.6754H32.3734V47.2039H36.9887V42.4397H41.6041V37.6754ZM36.9887 25.7649H32.3734V35.2933H36.9887V25.7649ZM57.7578 16.2364V25.7649H62.3731V16.2364C62.3731 14.9728 61.8869 13.761 61.0213 12.8676C60.1558 11.9741 58.9818 11.4722 57.7578 11.4722H48.5271V16.2364H57.7578ZM11.6043 11.4722C10.3802 11.4722 9.20628 11.9741 8.34074 12.8676C7.47519 13.761 6.98893 14.9728 6.98893 16.2364V25.7649H11.6043V16.2364H20.835V11.4722H11.6043ZM57.7578 54.3503V63.8787H48.5271V68.643H57.7578C58.9818 68.643 60.1558 68.141 61.0213 67.2475C61.8869 66.3541 62.3731 65.1423 62.3731 63.8787V54.3503H57.7578ZM11.6043 63.8787V54.3503H6.98893V63.8787C6.98893 65.1423 7.47519 66.3541 8.34074 67.2475C9.20628 68.141 10.3802 68.643 11.6043 68.643H20.835V63.8787H11.6043Z" fill="white"/>
</svg>
