<svg width="240" height="57" viewBox="0 0 240 57" fill="none" xmlns="http://www.w3.org/2000/svg">
<path d="M95.6949 8.88815H69.7188V14.1667H79.808V40.2317H85.6528V14.1667H95.6949V8.88815Z" fill="white"/>
<path d="M103.323 17.3318C99.8555 17.3318 96.9908 18.4302 94.8082 20.5958C92.6256 22.7614 91.5186 25.5725 91.5186 28.9562C91.5186 32.5169 92.6361 35.4008 94.8344 37.5404C97.0328 39.6799 99.9866 40.7575 103.628 40.7575C105.446 40.7546 107.247 40.4193 108.943 39.7684C110.58 39.175 112.056 38.2127 113.255 36.9574L113.549 36.6398L109.971 33.1988L109.661 33.532C108.949 34.2518 108.07 34.7879 107.101 35.0937C106.017 35.4897 104.872 35.6958 103.717 35.7028C102.079 35.7673 100.467 35.2772 99.1472 34.3128C98.1241 33.5494 97.423 32.4364 97.1797 31.1894H114.604L114.641 30.7938C115.06 26.447 114.21 23.0841 112.117 20.7936C110.023 18.5031 107.054 17.3318 103.323 17.3318ZM107.678 23.4694C108.151 23.839 108.544 24.2989 108.834 24.822C109.124 25.3452 109.306 25.9207 109.368 26.5147H97.3004C97.6212 25.3045 98.3417 24.236 99.3465 23.4798C100.576 22.6584 102.025 22.2197 103.507 22.2197C104.989 22.2197 106.438 22.6584 107.668 23.4798L107.678 23.4694Z" fill="white"/>
<path d="M133.496 33.6986C132.869 34.3256 132.116 34.8158 131.287 35.1376C130.458 35.4594 129.57 35.6058 128.68 35.5674C126.978 35.6156 125.324 35.0009 124.073 33.8548C122.856 32.7303 122.242 31.127 122.242 29.0863C122.2 28.2099 122.342 27.3344 122.659 26.5153C122.976 25.6962 123.461 24.9515 124.084 24.3283C124.693 23.7293 125.419 23.2601 126.218 22.9495C127.016 22.6389 127.87 22.4934 128.727 22.5219C129.569 22.495 130.408 22.639 131.192 22.9451C131.976 23.2513 132.689 23.7131 133.286 24.3023L133.612 24.6094L137.117 20.9654L136.802 20.6583C135.742 19.5933 134.476 18.7516 133.081 18.1836C131.685 17.6156 130.188 17.333 128.68 17.3527C125.563 17.2622 122.532 18.3722 120.222 20.4501C117.972 22.5011 116.833 25.4059 116.833 29.0863C116.833 32.7668 117.972 35.6716 120.222 37.7226C122.536 39.7929 125.566 40.8953 128.68 40.7992C130.263 40.8178 131.833 40.5189 133.296 39.9204C134.759 39.322 136.086 38.4363 137.195 37.3166L137.515 36.999L133.806 33.355L133.496 33.6986Z" fill="white"/>
<path d="M151.577 17.5921C150.351 17.5486 149.131 17.7657 147.997 18.229C146.863 18.6923 145.842 19.3911 145.003 20.2783V8.88815H139.583V40.2317H144.987V28.6074C144.946 27.0424 145.509 25.521 146.561 24.3543C147.052 23.8002 147.66 23.3604 148.342 23.0662C149.024 22.772 149.763 22.6306 150.507 22.6521C151.185 22.6104 151.864 22.7144 152.498 22.957C153.131 23.1996 153.705 23.575 154.179 24.0576C155.061 24.9946 155.507 26.4106 155.507 28.2586V40.2317H160.916V28.217C160.916 24.9634 160.129 22.3605 158.576 20.4761C157.023 18.5916 154.657 17.5921 151.577 17.5921Z" fill="white"/>
<path d="M176.876 17.4203C175.301 17.4317 173.748 17.7872 172.327 18.4615C171.336 18.8932 170.444 19.5202 169.704 20.3043V8.92981H164.3V40.2318H169.41L169.609 37.6289C171.278 39.6383 173.676 40.6534 176.761 40.6534C180.082 40.6534 182.857 39.6123 185.008 37.53C187.159 35.4477 188.261 32.595 188.261 29.0343C188.261 25.3903 187.18 22.5063 185.056 20.4709C182.931 18.4354 180.197 17.4203 176.876 17.4203ZM182.878 29.0447C182.919 29.9206 182.776 30.7954 182.458 31.6135C182.14 32.4317 181.654 33.1754 181.031 33.7975C180.438 34.3929 179.727 34.861 178.944 35.1726C178.161 35.4843 177.321 35.6328 176.477 35.6091C175.621 35.6342 174.769 35.4845 173.974 35.1692C173.179 34.854 172.458 34.38 171.855 33.7767C171.235 33.1573 170.751 32.4169 170.434 31.6024C170.117 30.7879 169.974 29.9169 170.013 29.0447C170.015 27.7738 170.39 26.5311 171.093 25.4686C171.796 24.4061 172.796 23.57 173.97 23.0628C175.144 22.5556 176.442 22.3993 177.705 22.613C178.968 22.8266 180.14 23.401 181.079 24.2658C182.27 25.4215 182.878 27.0301 182.878 29.0447Z" fill="white"/>
<path d="M207.396 29.508C207.442 31.0925 206.879 32.6353 205.822 33.8235C205.328 34.387 204.714 34.8344 204.024 35.1333C203.335 35.4323 202.587 35.5752 201.834 35.5518C200.103 35.5518 198.802 35.0312 197.842 33.9901C196.847 32.8329 196.332 31.3448 196.399 29.8255V17.8992H191V29.8724C191 33.1624 191.887 35.7913 193.623 37.6809C194.5 38.6295 195.574 39.3784 196.77 39.8762C197.967 40.3741 199.258 40.609 200.554 40.5649C201.873 40.5771 203.181 40.3263 204.401 39.8273C205.62 39.3283 206.726 38.5913 207.653 37.6601L207.868 40.263H212.8V17.8784H207.396V29.508Z" fill="white"/>
<path d="M234.977 36.796C236.39 36.1233 237.597 35.0903 238.476 33.8027C239.506 32.2133 240.035 30.3559 239.998 28.4669C239.998 22.9488 236.85 20.3876 234.074 18.7738C232.237 17.7115 230.141 17.1712 228.014 17.2121C224.908 17.1523 221.883 18.1996 219.489 20.1637C217.08 22.1419 215.863 24.9322 215.863 28.446C215.863 31.8662 216.986 34.6148 219.211 36.6086C221.435 38.6024 224.384 39.5915 228.014 39.5915C229.657 39.5118 231.287 39.9098 232.705 40.7367C233.233 41.0553 233.665 41.508 233.958 42.0479C234.25 42.5879 234.392 43.1956 234.368 43.8081C234.376 44.4122 234.208 45.0058 233.883 45.5167C233.558 46.0277 233.09 46.4341 232.537 46.6868C231.121 47.4288 229.537 47.7997 227.936 47.7644C226.274 47.7846 224.643 47.3193 223.245 46.4266C222.666 46.0781 222.196 45.5777 221.886 44.9805C221.576 44.3834 221.438 43.7128 221.488 43.0429V42.5847H216.094V43.0116C216.005 46.0986 217.054 48.5661 219.216 50.3465C221.377 52.1268 224.289 52.9962 227.946 52.9962C230.923 53.064 233.851 52.2325 236.341 50.612C237.488 49.8863 238.426 48.8781 239.063 47.6857C239.7 46.4932 240.015 45.1573 239.977 43.8081C239.951 40.5753 238.277 38.212 234.977 36.796ZM221.309 28.4669C221.309 26.4679 221.939 24.979 223.235 23.9119C224.581 22.8221 226.277 22.2477 228.014 22.2929C229.733 22.2457 231.407 22.8444 232.7 23.9691C233.334 24.5309 233.832 25.2267 234.159 26.0051C234.486 26.7835 234.633 27.6247 234.589 28.4669C234.618 29.2893 234.468 30.1084 234.149 30.8678C233.829 31.6272 233.347 32.3088 232.736 32.8657C231.451 34.0335 229.756 34.6558 228.014 34.5992C226.261 34.6579 224.548 34.0763 223.198 32.9646C221.955 31.8922 221.309 30.419 221.309 28.4669Z" fill="white"/>
<path d="M36.3235 35.7548C35.6154 35.6087 34.8793 35.6798 34.2129 35.9588C33.5466 36.2377 32.9816 36.7113 32.5931 37.3166C30.9544 39.7785 28.559 41.6504 25.7628 42.6541C22.9665 43.6578 19.9186 43.7399 17.0716 42.8881C14.2246 42.0363 11.7304 40.2961 9.95954 37.926C8.18867 35.5558 7.23553 32.6821 7.24169 29.7317C7.24786 26.7813 8.213 23.9116 9.99376 21.5487C11.7745 19.1858 14.2759 17.4559 17.1265 16.6158C19.977 15.7758 23.0246 15.8704 25.8166 16.8856C28.6086 17.9008 30.9962 19.7825 32.6246 22.2512C33.012 22.8411 33.5698 23.3013 34.2251 23.5715C34.8803 23.8418 35.6025 23.9096 36.2972 23.7661L36.5123 23.7192C37.0626 23.5957 37.5749 23.3429 38.0063 22.9821C38.4377 22.6214 38.7755 22.1631 38.9914 21.646C39.2073 21.1288 39.295 20.5678 39.2471 20.01C39.1991 19.4523 39.017 18.9141 38.7159 18.4406C36.2548 14.6572 32.6265 11.7648 28.3727 10.1951C24.1188 8.62545 19.4675 8.4627 15.1127 9.73113C10.758 10.9996 6.93344 13.6312 4.20977 17.2332C1.48611 20.8353 0.00940678 25.2146 4.47905e-05 29.7177C-0.0093172 34.2208 1.44917 38.6062 4.15783 42.2193C6.86649 45.8325 10.6801 48.4797 15.0295 49.766C19.3789 51.0522 24.0309 50.9085 28.2913 49.3563C32.5516 47.8041 36.1918 44.9265 38.6687 41.1532C38.9808 40.6814 39.1737 40.142 39.2312 39.5806C39.2887 39.0192 39.2091 38.4523 38.9992 37.9279C38.7892 37.4035 38.455 36.9369 38.0249 36.5677C37.5948 36.1986 37.0813 35.9376 36.5281 35.8069L36.3235 35.7548Z" fill="white"/>
<path d="M3.63215 4C4.5895 4 5.50764 4.37734 6.18459 5.04901C6.86154 5.72067 7.24184 6.63165 7.24184 7.58153V29.7631H0.0224609V7.58153C0.0224609 6.63165 0.402766 5.72067 1.07971 5.04901C1.75666 4.37734 2.6748 4 3.63215 4Z" fill="white"/>
<path d="M61.7905 29.7579C61.7905 27.8423 61.1942 25.9735 60.0831 24.407C58.972 22.8404 57.4004 21.6526 55.5831 21.006C53.7658 20.3594 51.7915 20.2855 49.9303 20.7945C48.0691 21.3034 46.4117 22.3703 45.1848 23.8494L45.0012 24.0732C43.8484 25.462 42.4159 26.5967 40.7955 27.4044C39.1751 28.2121 37.4026 28.6752 35.5914 28.7639C33.7802 28.8526 31.9703 28.565 30.2777 27.9195C28.585 27.274 27.0469 26.2849 25.7618 25.0155H25.7355C24.7858 24.0817 23.5788 23.4476 22.2666 23.1932C20.9544 22.9388 19.5956 23.0755 18.3615 23.5859C17.1274 24.0964 16.0732 24.9578 15.3316 26.0617C14.59 27.1655 14.1943 28.4625 14.1943 29.7891C14.1943 31.1157 14.59 32.4126 15.3316 33.5165C16.0732 34.6204 17.1274 35.4818 18.3615 35.9923C19.5956 36.5027 20.9544 36.6393 22.2666 36.3849C23.5788 36.1306 24.7858 35.4965 25.7355 34.5627H25.7618C27.051 33.2903 28.5943 32.2997 30.2925 31.6545C31.9907 31.0094 33.8061 30.7239 35.6221 30.8166C37.4382 30.9093 39.2145 31.378 40.8371 32.1926C42.4596 33.0072 43.8923 34.1497 45.0432 35.5466C46.2452 37.0692 47.8959 38.1819 49.7654 38.7299C51.6349 39.2778 53.63 39.2336 55.4729 38.6034C57.3159 37.9733 58.9149 36.7886 60.0473 35.2142C61.1796 33.6399 61.789 31.7544 61.7905 29.8203V29.7579Z" fill="url(#paint0_linear_644_4566)"/>
<defs>
<linearGradient id="paint0_linear_644_4566" x1="14.2034" y1="29.7631" x2="61.7905" y2="29.7631" gradientUnits="userSpaceOnUse">
<stop offset="0.12" stop-color="#FF6E1F"/>
<stop offset="0.79" stop-color="#F9CA06"/>
</linearGradient>
</defs>
</svg>
