<svg width="101" height="100" viewBox="0 0 101 100" fill="none" xmlns="http://www.w3.org/2000/svg">
<path d="M31.586 71.5872L38.0156 69.4776L27.8307 40.6094L21.401 42.7191C13.2368 45.3978 10.3834 51.1184 13.1854 59.0601L14.7408 63.4688C17.532 71.3803 23.4217 74.2659 31.586 71.5872ZM42.1233 68.1634C50.917 66.3227 62.3877 65.3557 72.0501 66.7338C71.9435 66.4318 71.8263 66.0996 71.7198 65.7976L56.9005 23.7939C56.7727 23.4315 56.6661 23.1296 56.5383 22.7672C49.6732 29.6019 39.3451 35.8881 31.9278 39.2652L42.1233 68.1634ZM84.8173 70.7658C88.4658 69.5687 90.0339 66.2576 88.7555 62.6341L72.3062 16.0101C71.0171 12.3563 67.6804 10.6546 64.0319 11.8517C60.4434 13.0291 58.8454 16.3499 60.1344 20.0037L76.5838 66.6277C77.8622 70.2512 81.2287 71.9432 84.8173 70.7658ZM50.7009 88.1252C54.4091 86.9085 56.2039 83.3885 53.6062 79.0521L49.0655 71.4786C46.6543 71.8318 43.179 72.6688 35.5383 74.94C35 75.1166 34.0517 75.3605 33.0947 75.6745L42.0287 85.1083C44.6852 87.909 47.2318 89.2634 50.7009 88.1252Z" fill="white"/>
</svg>
