<svg width="24" height="25" viewBox="0 0 24 25" fill="none" xmlns="http://www.w3.org/2000/svg">
<path d="M24 18.3933V23.1081C24 23.8081 23.4588 24.3889 22.7607 24.4383C22.1775 24.4795 21.7017 24.5 21.3333 24.5C9.5512 24.5 0 14.9488 0 3.16667C0 2.79828 0.0206 2.32249 0.0618 1.73933C0.11116 1.04117 0.69192 0.5 1.39181 0.5H6.1068C6.44904 0.5 6.73568 0.759227 6.77004 1.09973C6.80089 1.40543 6.82957 1.65085 6.85609 1.83603C7.1258 3.71963 7.67671 5.51248 8.46493 7.17071C8.59145 7.43687 8.50895 7.75545 8.26913 7.92675L5.3914 9.9824C7.14336 14.0748 10.4252 17.3567 14.5176 19.1087L16.5695 16.2359C16.7429 15.9932 17.0653 15.9097 17.3347 16.0376C18.9928 16.8252 20.7855 17.3755 22.6688 17.6445C22.8528 17.6709 23.0967 17.6993 23.4003 17.73C23.7408 17.7644 24 18.0511 24 18.3933Z" fill="#F9CA06"/>
</svg>
