<svg width="101" height="100" viewBox="0 0 101 100" fill="none" xmlns="http://www.w3.org/2000/svg">
<path d="M76.1449 16.2881C78.0402 16.2881 79.8579 17.0774 81.1981 18.4823C82.5383 19.8873 83.2912 21.7928 83.2912 23.7797V38.7628C83.2912 40.7497 84.0441 42.6552 85.3843 44.0602C86.7245 45.4651 88.5422 46.2544 90.4376 46.2544H94.0107V53.746H90.4376C88.5422 53.746 86.7245 54.5353 85.3843 55.9402C84.0441 57.3452 83.2912 59.2507 83.2912 61.2376V76.2208C83.2912 78.2076 82.5383 80.1132 81.1981 81.5181C79.8579 82.923 78.0402 83.7123 76.1449 83.7123H68.9985V76.2208H76.1449V57.4918C76.1449 55.5049 76.8978 53.5994 78.238 52.1944C79.5782 50.7895 81.3959 50.0002 83.2912 50.0002C81.3959 50.0002 79.5782 49.2109 78.238 47.806C76.8978 46.401 76.1449 44.4955 76.1449 42.5086V23.7797H68.9985V16.2881H76.1449ZM25.1883 16.2881C23.293 16.2881 21.4753 17.0774 20.1351 18.4823C18.7949 19.8873 18.042 21.7928 18.042 23.7797V38.7628C18.042 40.7497 17.289 42.6552 15.9488 44.0602C14.6086 45.4651 12.7909 46.2544 10.8956 46.2544H7.32243V53.746H10.8956C12.7909 53.746 14.6086 54.5353 15.9488 55.9402C17.289 57.3452 18.042 59.2507 18.042 61.2376V76.2208C18.042 78.2076 18.7949 80.1132 20.1351 81.5181C21.4753 82.923 23.293 83.7123 25.1883 83.7123H32.3346V76.2208H25.1883V57.4918C25.1883 55.5049 24.4354 53.5994 23.0952 52.1944C21.755 50.7895 19.9373 50.0002 18.042 50.0002C19.9373 50.0002 21.755 49.2109 23.0952 47.806C24.4354 46.401 25.1883 44.4955 25.1883 42.5086V23.7797H32.3346V16.2881H25.1883Z" fill="white"/>
<path d="M30.8395 63.7419L46.744 47.069C45.171 42.855 46.0449 37.9081 49.3656 34.427C52.8611 30.7626 58.1044 30.0297 62.2989 32.0451L54.7836 39.9235L60.0269 45.42L67.717 37.5417C69.8143 41.9389 68.9404 47.4354 65.4449 51.0998C62.1242 54.581 57.4053 55.497 53.3854 53.8481L37.4809 70.5209C36.7818 71.2538 35.7332 71.2538 35.0341 70.5209L31.0143 66.3069C30.1404 65.574 30.1404 64.2915 30.8395 63.7419Z" fill="white"/>
</svg>
