<svg width="107" height="100" viewBox="0 0 107 100" fill="none" xmlns="http://www.w3.org/2000/svg">
<path fill-rule="evenodd" clip-rule="evenodd" d="M46.3064 18.3171C43.6054 18.8568 41.8768 21.3728 42.4454 23.9366L54.44 78.0181C55.0086 80.582 57.6592 82.2228 60.3602 81.6831C63.0611 81.1433 64.7897 78.6273 64.2211 76.0635L52.2265 21.982C51.6579 19.4182 49.0073 17.7773 46.3064 18.3171ZM26.8807 30.9904C24.9289 29.1377 21.7645 29.1377 19.8128 30.9904L1.82087 48.0688C-0.130875 49.9214 -0.130875 52.9251 1.82087 54.7778L19.8128 71.8561C21.7645 73.7088 24.9289 73.7088 26.8807 71.8561C28.8324 70.0035 28.8324 66.9998 26.8807 65.1471L12.4227 51.4233L26.8807 37.6994C28.8324 35.8468 28.8324 32.843 26.8807 30.9904ZM79.7858 30.9904C77.8341 32.843 77.8341 35.8468 79.7858 37.6994L94.2438 51.4233L79.7858 65.1471C77.8341 66.9998 77.8341 70.0035 79.7858 71.8561C81.7376 73.7088 84.902 73.7088 86.8537 71.8561L104.846 54.7778C106.797 52.9251 106.797 49.9214 104.846 48.0688L86.8537 30.9904C84.902 29.1377 81.7376 29.1377 79.7858 30.9904Z" fill="white"/>
</svg>
